<svg id="圖層_2" data-name="圖層 2" xmlns="http://www.w3.org/2000/svg" viewBox="0 0 382.68 382.68"><defs><style>.cls-1{fill:#01579b;}.cls-2,.cls-3,.cls-5{fill:none;stroke:#fff;}.cls-2{stroke-width:3px;}.cls-3{stroke-width:2px;}.cls-4{fill:#fff;}</style></defs><rect class="cls-1" width="382.68" height="382.68"/><path class="cls-2" d="M63.75,51.55V203.49c0,7.31,15.67,13.24,35,13.24s35-5.93,35-13.24V51.55L126.07,49a32.92,32.92,0,0,0-21.56.38l-5.76,2.16L89.14,55a23.27,23.27,0,0,1-15.26.08Z"/><line class="cls-2" x1="63.75" y1="199.92" x2="133.75" y2="199.92"/><line class="cls-2" x1="63.75" y1="147.82" x2="132.1" y2="147.82"/><line class="cls-2" x1="90.6" y1="155.12" x2="124.03" y2="155.12"/><line class="cls-2" x1="95.21" y1="162.42" x2="117.49" y2="162.42"/><polyline class="cls-3" points="290.99 269.14 290.99 121.17 142.61 121.17"/><polygon class="cls-4" points="144.59 118.27 133.75 121.17 144.59 124.08 144.59 118.27"/><path class="cls-3" d="M-331-74.95"/><polyline class="cls-3" points="98.75 216.73 98.75 341.61 290.99 341.61 290.99 329.45"/><polygon class="cls-4" points="293.89 331.43 290.99 320.59 288.08 331.43 293.89 331.43"/><line class="cls-2" x1="180.83" y1="279.39" x2="180.83" y2="327.47"/><line class="cls-2" x1="201.87" y1="285.05" x2="201.87" y2="320.4"/><line class="cls-2" x1="227.54" y1="269.14" x2="227.54" y2="320.4"/><polyline class="cls-3" points="232.09 281.86 324.72 281.86 324.72 320.4"/><line class="cls-5" x1="248.71" y1="289.64" x2="316.24" y2="289.64"/><line class="cls-5" x1="266.39" y1="294.77" x2="303.86" y2="294.77"/><line class="cls-5" x1="273.46" y1="301.13" x2="299.62" y2="301.13"/><line class="cls-2" x1="223.41" y1="281.86" x2="212.65" y2="281.86"/><line class="cls-5" x1="328.61" y1="302.72" x2="353.01" y2="302.72"/><line class="cls-5" x1="331.44" y1="306.61" x2="351.45" y2="306.61"/><line class="cls-5" x1="336.39" y1="310.86" x2="350.18" y2="310.86"/><path class="cls-2" d="M347.17,269.14a4.59,4.59,0,0,0-1.59.28v-.28h-118l-25.67,15.91h-21V320.4H345.58v-.28a4.84,4.84,0,0,0,1.59.28c6,0,10.79-11.47,10.79-25.63S353.13,269.14,347.17,269.14Z"/><line class="cls-2" x1="347.17" y1="269.14" x2="347.17" y2="320.4"/></svg>