<svg id="圖層_2" data-name="圖層 2" xmlns="http://www.w3.org/2000/svg" viewBox="0 0 382.68 382.68"><defs><style>.cls-1{fill:#1a237e;}.cls-2,.cls-3,.cls-4,.cls-5,.cls-6,.cls-7{fill:none;stroke:#fff;}.cls-2,.cls-3,.cls-4,.cls-5{stroke-width:3px;}.cls-3{stroke-dasharray:6.18 3.09;}.cls-4{stroke-dasharray:5.45 2.73;}.cls-5{stroke-dasharray:3.47 1.74;}.cls-6{stroke-width:5px;}.cls-7{stroke-width:2px;}.cls-8{fill:#fff;}</style></defs><rect class="cls-1" width="382.68" height="382.68"/><path class="cls-2" d="M63.75,51.55V203.49c0,7.31,15.67,13.24,35,13.24s35-5.93,35-13.24V51.55L126.07,49a32.92,32.92,0,0,0-21.56.38l-5.76,2.16L89.14,55a23.27,23.27,0,0,1-15.26.08Z"/><line class="cls-2" x1="63.75" y1="199.92" x2="133.75" y2="199.92"/><line class="cls-2" x1="64.57" y1="83.2" x2="67.57" y2="83.2"/><line class="cls-3" x1="70.66" y1="83.2" x2="115.44" y2="83.2"/><polyline class="cls-2" points="116.98 83.2 119.98 83.2 119.98 86.2"/><line class="cls-4" x1="119.98" y1="88.92" x2="119.98" y2="95.74"/><polyline class="cls-2" points="119.98 97.1 119.98 100.1 122.98 100.1"/><line class="cls-5" x1="124.72" y1="100.1" x2="129.05" y2="100.1"/><line class="cls-2" x1="129.92" y1="100.1" x2="132.92" y2="100.1"/><line class="cls-2" x1="63.75" y1="147.82" x2="132.1" y2="147.82"/><line class="cls-2" x1="90.6" y1="155.12" x2="124.03" y2="155.12"/><line class="cls-2" x1="95.21" y1="162.42" x2="117.49" y2="162.42"/><circle class="cls-6" cx="290.99" cy="265.75" r="30"/><line class="cls-6" x1="265.31" y1="211.63" x2="316.67" y2="211.63"/><line class="cls-6" x1="276.33" y1="211.63" x2="276.52" y2="239.47"/><line class="cls-6" x1="304.75" y1="211.63" x2="304.75" y2="239.11"/><line class="cls-6" x1="265.31" y1="320.59" x2="316.67" y2="320.59"/><line class="cls-6" x1="276.33" y1="320.59" x2="276.52" y2="292.75"/><line class="cls-6" x1="304.75" y1="320.59" x2="304.75" y2="293.12"/><line class="cls-6" x1="277.21" y1="266.11" x2="304.77" y2="266.11"/><line class="cls-6" x1="292.33" y1="279.9" x2="292.33" y2="252.33"/><polyline class="cls-7" points="292.33 332.41 292.33 341.61 204.68 341.61 204.68 91.65 133.75 91.65"/><polygon class="cls-8" points="289.43 334.39 292.33 323.55 295.24 334.39 289.43 334.39"/><polyline class="cls-7" points="290.99 211.02 290.99 121.17 142.61 121.17"/><polygon class="cls-8" points="144.59 118.27 133.75 121.17 144.59 124.08 144.59 118.27"/><line class="cls-7" x1="98.75" y1="216.73" x2="98.75" y2="265.34"/><polygon class="cls-8" points="95.84 263.36 98.75 274.2 101.65 263.36 95.84 263.36"/></svg>