<svg id="圖層_2" data-name="圖層 2" xmlns="http://www.w3.org/2000/svg" viewBox="0 0 382.68 382.68"><defs><style>.cls-1{fill:#1b5e20;}.cls-2,.cls-3,.cls-4,.cls-5,.cls-6,.cls-8,.cls-9{fill:none;stroke:#fff;}.cls-2,.cls-3,.cls-4,.cls-5,.cls-8{stroke-width:3px;}.cls-3{stroke-dasharray:6.18 3.09;}.cls-4{stroke-dasharray:5.45 2.73;}.cls-5{stroke-dasharray:3.47 1.74;}.cls-6,.cls-9{stroke-width:2px;}.cls-7{fill:#fff;}.cls-8,.cls-9{stroke-miterlimit:10;}</style></defs><rect class="cls-1" width="382.68" height="382.68"/><path class="cls-2" d="M63.75,51.55V203.49c0,7.31,15.67,13.24,35,13.24s35-5.93,35-13.24V51.55L126.07,49a32.92,32.92,0,0,0-21.56.38l-5.76,2.16L89.14,55a23.27,23.27,0,0,1-15.26.08Z"/><line class="cls-2" x1="63.75" y1="199.92" x2="133.75" y2="199.92"/><line class="cls-2" x1="64.57" y1="83.2" x2="67.57" y2="83.2"/><line class="cls-3" x1="70.66" y1="83.2" x2="115.44" y2="83.2"/><polyline class="cls-2" points="116.98 83.2 119.98 83.2 119.98 86.2"/><line class="cls-4" x1="119.98" y1="88.92" x2="119.98" y2="95.74"/><polyline class="cls-2" points="119.98 97.1 119.98 100.1 122.98 100.1"/><line class="cls-5" x1="124.72" y1="100.1" x2="129.05" y2="100.1"/><line class="cls-2" x1="129.92" y1="100.1" x2="132.92" y2="100.1"/><line class="cls-2" x1="63.75" y1="147.82" x2="132.1" y2="147.82"/><line class="cls-2" x1="90.6" y1="155.12" x2="124.03" y2="155.12"/><line class="cls-2" x1="95.21" y1="162.42" x2="117.49" y2="162.42"/><polyline class="cls-6" points="292.33 332.41 292.33 341.61 204.68 341.61 204.68 91.65 133.75 91.65"/><polygon class="cls-7" points="289.43 334.39 292.33 323.55 295.24 334.39 289.43 334.39"/><polyline class="cls-6" points="290.99 178.72 290.99 121.17 142.61 121.17"/><polygon class="cls-7" points="144.59 118.27 133.75 121.17 144.59 124.08 144.59 118.27"/><line class="cls-6" x1="98.75" y1="216.73" x2="98.75" y2="265.34"/><polygon class="cls-7" points="95.84 263.36 98.75 274.2 101.65 263.36 95.84 263.36"/><line class="cls-8" x1="265.58" y1="178.72" x2="315.09" y2="178.72"/><line class="cls-8" x1="265.58" y1="323.93" x2="315.09" y2="323.93"/><line class="cls-8" x1="273.41" y1="178.72" x2="273.41" y2="323.93"/><line class="cls-8" x1="306.89" y1="178.72" x2="306.89" y2="323.93"/><line class="cls-9" x1="265.58" y1="191.19" x2="315.09" y2="191.19"/><line class="cls-9" x1="265.58" y1="309.8" x2="315.09" y2="309.8"/></svg>