<svg id="圖層_2" data-name="圖層 2" xmlns="http://www.w3.org/2000/svg" viewBox="0 0 382.68 382.68"><defs><style>.cls-1{fill:#1a237e;}.cls-2,.cls-3,.cls-4,.cls-6{fill:none;stroke:#fff;}.cls-2,.cls-6{stroke-width:3px;}.cls-3{stroke-width:5px;}.cls-4{stroke-width:2px;}.cls-5{fill:#fff;}.cls-6{stroke-dasharray:6 3;}</style></defs><rect class="cls-1" width="382.68" height="382.68"/><path class="cls-2" d="M63.75,51.55V203.49c0,7.31,15.67,13.24,35,13.24s35-5.93,35-13.24V51.55L126.07,49a32.92,32.92,0,0,0-21.56.38l-5.76,2.16L89.14,55a23.27,23.27,0,0,1-15.26.08Z"/><line class="cls-2" x1="63.75" y1="199.92" x2="133.75" y2="199.92"/><circle class="cls-3" cx="290.99" cy="265.75" r="30"/><line class="cls-3" x1="265.31" y1="211.63" x2="316.67" y2="211.63"/><line class="cls-3" x1="276.33" y1="211.63" x2="276.52" y2="239.47"/><line class="cls-3" x1="304.75" y1="211.63" x2="304.75" y2="239.11"/><line class="cls-3" x1="265.31" y1="320.59" x2="316.67" y2="320.59"/><line class="cls-3" x1="276.33" y1="320.59" x2="276.52" y2="292.75"/><line class="cls-3" x1="304.75" y1="320.59" x2="304.75" y2="293.12"/><line class="cls-3" x1="277.21" y1="266.11" x2="304.77" y2="266.11"/><line class="cls-3" x1="292.33" y1="279.9" x2="292.33" y2="252.33"/><polyline class="cls-4" points="290.99 211.02 290.99 121.17 142.61 121.17"/><polygon class="cls-5" points="144.59 118.27 133.75 121.17 144.59 124.08 144.59 118.27"/><line class="cls-4" x1="113.53" y1="216.73" x2="113.53" y2="265.34"/><polygon class="cls-5" points="110.62 263.36 113.53 274.2 116.43 263.36 110.62 263.36"/><polyline class="cls-4" points="63.75 142.74 103.69 142.74 103.69 216.73"/><polyline class="cls-4" points="88.25 216.73 88.25 344.98 292.33 344.98 292.33 329.45"/><polygon class="cls-5" points="295.24 331.43 292.33 320.59 289.43 331.43 295.24 331.43"/><polyline class="cls-6" points="133.75 99.2 88.25 99.2 88.25 142.74"/><line class="cls-4" x1="109.27" y1="155.64" x2="127.39" y2="155.64"/><line class="cls-4" x1="114.13" y1="163.95" x2="123.31" y2="163.95"/><line class="cls-4" x1="116.1" y1="173.55" x2="120.78" y2="173.55"/><line class="cls-4" x1="71.76" y1="150.1" x2="95.21" y2="150.1"/><line class="cls-4" x1="75.81" y1="158.84" x2="90.05" y2="158.84"/><line class="cls-4" x1="77.3" y1="167.58" x2="86.67" y2="167.58"/></svg>