<svg id="圖層_2" data-name="圖層 2" xmlns="http://www.w3.org/2000/svg" viewBox="0 0 382.68 382.68"><defs><style>.cls-1{fill:#1a237e;}.cls-2,.cls-3,.cls-4{fill:none;stroke:#fff;}.cls-2{stroke-width:3px;}.cls-3{stroke-width:5px;}.cls-4{stroke-width:2px;}.cls-5{fill:#fff;}</style></defs><rect class="cls-1" width="382.68" height="382.68"/><path class="cls-2" d="M63.75,51.55V203.49c0,7.31,15.67,13.24,35,13.24s35-5.93,35-13.24V51.55L126.07,49a32.92,32.92,0,0,0-21.56.38l-5.76,2.16L89.14,55a23.27,23.27,0,0,1-15.26.08Z"/><line class="cls-2" x1="63.75" y1="199.92" x2="133.75" y2="199.92"/><line class="cls-2" x1="63.75" y1="147.82" x2="132.1" y2="147.82"/><line class="cls-2" x1="90.6" y1="155.12" x2="124.03" y2="155.12"/><line class="cls-2" x1="95.21" y1="162.42" x2="117.49" y2="162.42"/><circle class="cls-3" cx="290.99" cy="265.75" r="30"/><line class="cls-3" x1="265.31" y1="211.63" x2="316.67" y2="211.63"/><line class="cls-3" x1="276.33" y1="211.63" x2="276.52" y2="239.47"/><line class="cls-3" x1="304.75" y1="211.63" x2="304.75" y2="239.11"/><line class="cls-3" x1="265.31" y1="320.59" x2="316.67" y2="320.59"/><line class="cls-3" x1="276.33" y1="320.59" x2="276.52" y2="292.75"/><line class="cls-3" x1="304.75" y1="320.59" x2="304.75" y2="293.12"/><line class="cls-3" x1="277.21" y1="266.11" x2="304.77" y2="266.11"/><line class="cls-3" x1="292.33" y1="279.9" x2="292.33" y2="252.33"/><polyline class="cls-4" points="290.99 211.02 290.99 121.17 142.61 121.17"/><polygon class="cls-5" points="144.59 118.27 133.75 121.17 144.59 124.08 144.59 118.27"/><line class="cls-4" x1="117.49" y1="216.73" x2="117.49" y2="265.34"/><polygon class="cls-5" points="114.59 263.36 117.5 274.2 120.4 263.36 114.59 263.36"/><path class="cls-4" d="M-331-74.95"/><polyline class="cls-4" points="98.75 216.73 98.75 341.61 290.99 341.61 290.99 329.45"/><polygon class="cls-5" points="293.89 331.43 290.99 320.59 288.08 331.43 293.89 331.43"/></svg>